<svg xmlns="http://www.w3.org/2000/svg" xmlns:xlink="http://www.w3.org/1999/xlink" width="500" zoomAndPan="magnify" viewBox="0 0 375 374.999991" height="500" preserveAspectRatio="xMidYMid meet" version="1.0"><defs><g/><clipPath id="f421359283"><path d="M 44.09375 153 L 87.59375 153 L 87.59375 208.316406 L 44.09375 208.316406 Z M 44.09375 153 " clip-rule="nonzero"/></clipPath></defs><rect x="-37.5" width="450" fill="#ffffff" y="-37.499999" height="449.999989" fill-opacity="1"/><rect x="-37.5" width="450" fill="#ffffff" y="-37.499999" height="449.999989" fill-opacity="1"/><g clip-path="url(#f421359283)"><path fill="#ff66c4" d="M 86.804688 179.292969 C 86.617188 179.261719 86.410156 179.277344 86.222656 179.296875 C 85.113281 179.429688 84.003906 179.582031 82.894531 179.699219 C 82.117188 179.78125 81.335938 179.824219 80.554688 179.878906 C 80.589844 179.769531 80.640625 179.753906 80.6875 179.746094 C 81.46875 179.609375 82.265625 179.492188 83.03125 179.320312 C 83.585938 179.195312 83.882812 178.8125 83.847656 178.398438 C 83.8125 177.941406 83.472656 177.660156 82.960938 177.578125 C 82.554688 177.507812 82.117188 177.535156 81.695312 177.554688 C 79.988281 177.625 78.289062 177.707031 76.582031 177.777344 C 76.394531 177.785156 76.207031 177.75 76.023438 177.734375 C 76.636719 177.613281 77.253906 177.578125 77.859375 177.5 C 78.546875 177.417969 78.871094 177.128906 78.828125 176.691406 C 78.785156 176.242188 78.449219 176.050781 77.722656 176.027344 C 74.648438 175.945312 71.613281 175.664062 68.683594 174.847656 C 68.109375 174.6875 67.542969 174.496094 66.972656 174.316406 C 67.097656 174.226562 67.183594 174.238281 67.265625 174.246094 C 69.027344 174.472656 70.957031 174.972656 72.738281 174.703125 C 72.945312 174.667969 73.195312 174.570312 73.195312 174.363281 C 73.195312 174.15625 72.941406 174.058594 72.730469 174.011719 C 71.183594 173.683594 69.65625 173.25 68.171875 172.71875 C 67.402344 172.441406 66.644531 172.136719 65.890625 171.804688 C 65.40625 171.589844 64.152344 171.246094 63.90625 170.769531 C 63.871094 170.597656 64.300781 170.808594 64.617188 170.925781 C 66.519531 171.632812 68.585938 171.742188 70.574219 172.136719 C 70.96875 172.214844 71.453125 172.28125 71.660156 171.886719 C 71.875 171.480469 71.398438 171.328125 71.082031 171.164062 C 69.746094 170.472656 68.40625 169.785156 67.070312 169.101562 C 65.847656 168.472656 64.390625 167.949219 63.304688 167.089844 C 64.902344 167.304688 66.503906 167.519531 68.101562 167.742188 C 68.253906 167.761719 68.480469 167.691406 68.425781 167.554688 C 67.003906 166.828125 65.570312 166.097656 64.148438 165.371094 C 65.40625 165.523438 66.664062 165.675781 67.914062 165.820312 C 68.121094 165.847656 68.398438 165.820312 68.433594 165.617188 C 68.460938 165.472656 68.328125 165.347656 68.210938 165.257812 C 67.679688 164.871094 67.085938 164.597656 66.492188 164.320312 C 65.433594 163.828125 64.375 163.339844 63.324219 162.847656 C 63.765625 162.765625 64.222656 162.820312 64.671875 162.875 C 65.300781 162.949219 65.9375 163.027344 66.574219 163.101562 C 67.042969 163.160156 67.894531 163.449219 68.292969 163.109375 C 68.425781 163 68.523438 162.847656 68.597656 162.695312 C 68.910156 162.101562 69.070312 161.445312 69.171875 160.78125 C 69.28125 160.101562 69.460938 159.488281 69.664062 158.832031 C 70.0625 157.496094 70.472656 156.164062 70.886719 154.828125 C 70.976562 154.546875 70.933594 154.421875 70.625 154.324219 C 68.535156 153.667969 66.539062 153.75 64.644531 154.90625 C 64.535156 154.972656 64.300781 154.972656 64.195312 154.90625 C 62.34375 153.773438 60.386719 153.675781 58.335938 154.285156 C 57.953125 154.394531 57.863281 154.539062 57.980469 154.914062 C 58.363281 156.128906 58.726562 157.351562 59.09375 158.574219 C 59.289062 159.203125 59.476562 159.839844 59.660156 160.46875 C 59.746094 160.746094 59.835938 161.015625 59.917969 161.292969 C 59.992188 161.554688 60.125 161.78125 60.234375 162.039062 C 60.386719 162.390625 60.691406 162.613281 61.003906 162.769531 C 61.429688 162.992188 61.867188 163.199219 62.300781 163.398438 C 62.738281 163.601562 63.179688 163.800781 63.621094 163.996094 C 63.972656 164.152344 64.492188 164.527344 64.875 164.570312 C 64.132812 164.492188 63.402344 164.417969 62.660156 164.332031 C 62.296875 164.292969 61.726562 164.175781 61.570312 164.429688 C 61.300781 164.808594 62.121094 165.050781 62.507812 165.226562 C 63.996094 165.882812 65.480469 166.53125 66.96875 167.1875 C 66.863281 167.375 66.011719 167.1875 65.535156 167.113281 C 65.515625 167.105469 65.496094 167.105469 65.46875 167.097656 C 64.570312 166.945312 63.664062 166.800781 62.765625 166.648438 C 62.335938 166.578125 61.902344 166.640625 62.351562 167.070312 C 62.417969 167.132812 62.523438 167.175781 62.605469 167.222656 C 64.761719 168.445312 66.914062 169.664062 69.070312 170.886719 C 69.199219 170.960938 69.316406 171.046875 69.441406 171.128906 C 67.167969 170.851562 64.929688 170.269531 62.695312 169.773438 C 62.351562 169.695312 61.992188 169.621094 61.644531 169.710938 C 61.257812 169.816406 61.96875 170.179688 62.074219 170.25 C 62.273438 170.367188 62.476562 170.492188 62.683594 170.597656 C 63.234375 170.871094 63.792969 171.148438 64.355469 171.417969 C 65.46875 171.964844 66.585938 172.511719 67.699219 173.054688 C 68.066406 173.234375 68.445312 173.382812 68.820312 173.539062 C 68.800781 173.589844 68.773438 173.628906 68.75 173.679688 C 67.960938 173.464844 67.125 173.324219 66.394531 173.023438 C 64.652344 172.296875 62.953125 171.496094 61.246094 170.707031 C 60.855469 170.527344 59.8125 170.429688 60.007812 171.191406 C 60.046875 171.34375 60.160156 171.460938 60.277344 171.570312 C 60.96875 172.246094 61.707031 172.871094 62.488281 173.4375 C 61.382812 173.152344 60.511719 172.289062 59.425781 171.921875 C 59.101562 171.8125 58.734375 171.75 58.410156 171.855469 C 58.078125 171.964844 57.800781 172.28125 57.835938 172.628906 C 57.863281 172.917969 58.097656 173.144531 58.320312 173.339844 C 58.832031 173.796875 59.335938 174.257812 59.847656 174.714844 C 59.117188 174.328125 58.375 173.941406 57.644531 173.554688 C 57.339844 173.394531 57.019531 173.230469 56.683594 173.214844 C 56.28125 173.195312 55.847656 173.445312 55.761719 173.835938 C 55.667969 174.292969 56.046875 174.695312 56.390625 175 C 60.074219 178.144531 64.753906 179.976562 69.53125 180.757812 C 69.457031 180.832031 69.339844 180.824219 69.226562 180.804688 C 66.664062 180.417969 64.121094 179.863281 61.664062 179.027344 C 60.4375 178.605469 59.226562 178.109375 58.066406 177.527344 C 56.925781 176.953125 55.90625 176.214844 54.808594 175.578125 C 54.484375 175.386719 54.117188 175.21875 53.730469 175.246094 C 53.453125 175.269531 54.257812 176.144531 54.285156 176.171875 C 54.648438 176.535156 55.03125 176.878906 55.4375 177.195312 C 57.476562 178.765625 59.902344 179.84375 62.40625 180.8125 C 65.472656 182 68.703125 182.742188 72.070312 183.070312 C 72.449219 183.105469 72.828125 183.167969 73.214844 183.21875 C 73.210938 183.25 73.203125 183.285156 73.195312 183.320312 C 72.546875 183.273438 71.890625 183.230469 71.238281 183.175781 C 68.425781 182.941406 65.6875 182.4375 63.035156 181.640625 C 58.859375 180.398438 55.078125 178.585938 51.773438 176.140625 C 51.304688 175.792969 50.847656 175.753906 50.480469 176.007812 C 50.101562 176.269531 50.089844 176.65625 50.46875 177.105469 C 51.609375 178.484375 52.976562 179.679688 54.582031 180.703125 C 54.96875 180.949219 55.355469 181.191406 55.734375 181.441406 C 55.699219 181.476562 55.671875 181.511719 55.636719 181.542969 C 54.871094 181.109375 54.097656 180.6875 53.34375 180.238281 C 51.699219 179.261719 50.0625 178.28125 48.414062 177.300781 C 48.078125 177.101562 47.730469 177.03125 47.386719 177.257812 C 47.039062 177.488281 47.0625 177.804688 47.226562 178.101562 C 47.363281 178.335938 47.542969 178.558594 47.746094 178.765625 C 49.085938 180.113281 50.691406 181.210938 52.417969 182.199219 C 53.121094 182.601562 53.835938 182.980469 54.546875 183.375 C 50.875 182.214844 47.542969 180.472656 44.09375 178.890625 C 44.191406 179.035156 44.332031 179.132812 44.484375 179.214844 C 46.042969 180.058594 47.59375 180.914062 49.167969 181.746094 C 50.738281 182.566406 52.3125 183.382812 53.992188 183.957031 C 54.808594 184.234375 55.636719 184.453125 56.46875 184.65625 C 57.207031 184.835938 58.796875 185.5 59.496094 185.050781 C 59.542969 185.015625 59.59375 184.972656 59.621094 184.917969 C 59.667969 184.8125 59.632812 184.691406 59.558594 184.605469 C 59.480469 184.523438 59.378906 184.46875 59.273438 184.425781 C 59.085938 184.34375 58.894531 184.269531 58.707031 184.199219 C 58.644531 184.15625 58.589844 184.117188 58.527344 184.074219 C 58.695312 184.003906 58.796875 184.011719 58.894531 184.039062 C 59.625 184.246094 60.351562 184.453125 61.085938 184.660156 C 61.09375 188.25 63.960938 197.117188 63.960938 197.117188 C 63.402344 190.371094 63.621094 186.707031 63.753906 185.378906 C 63.945312 185.421875 64.195312 185.476562 64.542969 185.546875 C 64.664062 188.214844 65.308594 203.503906 63.753906 208.023438 C 63.753906 208.023438 69.941406 192.394531 67.390625 186.003906 C 68.382812 186.148438 69.386719 186.277344 70.390625 186.367188 C 71.011719 186.425781 71.679688 186.265625 72.296875 186.113281 C 72.730469 186.007812 72.96875 185.683594 72.871094 185.277344 C 72.773438 184.871094 72.421875 184.710938 71.957031 184.65625 C 71.253906 184.566406 70.546875 184.496094 69.851562 184.371094 C 68.445312 184.128906 67.050781 183.851562 65.652344 183.597656 C 65.667969 183.554688 65.675781 183.515625 65.6875 183.480469 C 65.785156 183.492188 65.882812 183.5 65.980469 183.515625 C 67.03125 183.667969 68.082031 183.832031 69.132812 183.96875 C 71.316406 184.261719 73.519531 184.28125 75.71875 184.164062 C 76.808594 184.109375 77.910156 184.019531 79 183.914062 C 79.546875 183.867188 80.09375 183.8125 80.640625 183.757812 C 81.144531 183.707031 81.636719 183.699219 82.097656 183.480469 C 82.214844 183.425781 82.324219 183.371094 82.4375 183.308594 C 82.539062 183.25 82.617188 183.160156 82.707031 183.078125 C 82.753906 183.039062 82.804688 182.996094 82.808594 182.933594 C 82.816406 182.863281 82.769531 182.769531 82.707031 182.726562 C 82.664062 182.699219 82.617188 182.691406 82.566406 182.679688 C 82.421875 182.644531 82.269531 182.636719 82.125 182.636719 C 81.757812 182.628906 81.398438 182.644531 81.035156 182.664062 C 81 182.664062 80.972656 182.664062 80.9375 182.671875 C 80.273438 182.707031 79.617188 182.742188 78.953125 182.761719 C 76.097656 182.863281 73.25 182.753906 70.4375 182.351562 C 67.957031 182.007812 65.550781 181.421875 63.25 180.582031 C 63.035156 180.507812 62.828125 180.433594 62.621094 180.339844 C 62.433594 180.257812 62.253906 180.167969 62.074219 180.078125 C 65.324219 181.171875 68.683594 181.785156 72.164062 182.035156 C 77.023438 182.375 81.746094 181.691406 86.445312 180.796875 C 86.792969 180.734375 87.152344 180.5 87.359375 180.257812 C 87.722656 179.835938 87.433594 179.382812 86.804688 179.292969 Z M 59.085938 184.398438 C 58.984375 184.371094 58.894531 184.324219 58.804688 184.269531 C 58.902344 184.308594 58.996094 184.359375 59.085938 184.398438 Z M 59.085938 184.398438 " fill-opacity="1" fill-rule="nonzero"/></g><path fill="#ff66c4" d="M 47.738281 141.046875 C 48.742188 141.773438 49.679688 142.609375 50.75 143.21875 C 54.171875 145.152344 57.519531 144.765625 60.726562 142.644531 C 62.265625 141.621094 63.734375 140.472656 65.308594 139.503906 C 67.492188 138.15625 69.828125 137.121094 72.433594 136.988281 C 73.375 136.941406 74.347656 137.113281 75.269531 137.328125 C 76.367188 137.582031 76.898438 138.390625 76.960938 139.519531 C 77.074219 141.542969 76.269531 143.238281 75.011719 144.746094 C 73.25 146.851562 70.933594 148.160156 68.441406 149.183594 C 67.832031 149.429688 67.203125 149.636719 66.582031 149.851562 C 66.304688 149.949219 65.980469 150.121094 65.777344 149.742188 C 65.597656 149.382812 65.917969 149.246094 66.136719 149.070312 C 68.300781 147.359375 68.136719 144.089844 65.8125 142.671875 C 64.015625 141.570312 61.664062 142.097656 60.539062 143.847656 C 59.371094 145.648438 59.867188 148.042969 61.652344 149.222656 C 61.769531 149.300781 61.894531 149.375 62.019531 149.445312 C 62.398438 149.652344 62.523438 149.984375 62.453125 150.390625 C 62.386719 150.785156 62.128906 151.015625 61.734375 151.074219 C 58.148438 151.621094 54.835938 151.042969 52.03125 148.609375 C 49.695312 146.582031 48.519531 143.902344 47.738281 141.046875 Z M 47.738281 141.046875 " fill-opacity="1" fill-rule="nonzero"/><path fill="#ff66c4" d="M 67.035156 137.371094 C 65.15625 138.242188 63.316406 139.125 61.453125 139.941406 C 60.699219 140.265625 59.882812 140.4375 59.101562 140.679688 C 58.445312 138.785156 59.46875 136.671875 61.339844 135.800781 C 63.421875 134.839844 65.957031 135.550781 67.035156 137.371094 Z M 67.035156 137.371094 " fill-opacity="1" fill-rule="nonzero"/><g fill="#000000" fill-opacity="0.4"><g transform="translate(2.427028, 195.304918)"><g><path d="M 1.859375 -46.375 L 21.140625 -46.375 C 24.734375 -46.375 27.890625 -45.753906 30.609375 -44.515625 C 33.328125 -43.285156 35.601562 -41.59375 37.4375 -39.4375 C 39.28125 -37.289062 40.671875 -34.828125 41.609375 -32.046875 C 42.554688 -29.265625 43.03125 -26.3125 43.03125 -23.1875 C 43.03125 -20.0625 42.554688 -17.109375 41.609375 -14.328125 C 40.671875 -11.546875 39.28125 -9.078125 37.4375 -6.921875 C 35.601562 -4.773438 33.328125 -3.082031 30.609375 -1.84375 C 27.890625 -0.613281 24.734375 0 21.140625 0 L 1.859375 0 L 1.859375 -0.5625 C 2.753906 -0.5625 3.441406 -0.773438 3.921875 -1.203125 C 4.398438 -1.640625 4.738281 -2.179688 4.9375 -2.828125 C 5.132812 -3.472656 5.253906 -4.160156 5.296875 -4.890625 C 5.347656 -5.617188 5.375 -6.257812 5.375 -6.8125 L 5.375 -39.5625 C 5.375 -40.113281 5.347656 -40.753906 5.296875 -41.484375 C 5.253906 -42.210938 5.132812 -42.898438 4.9375 -43.546875 C 4.738281 -44.191406 4.398438 -44.726562 3.921875 -45.15625 C 3.441406 -45.59375 2.753906 -45.8125 1.859375 -45.8125 Z M 10.015625 -0.921875 L 20.03125 -0.921875 C 22.875 -0.921875 25.425781 -1.546875 27.6875 -2.796875 C 29.945312 -4.054688 31.851562 -5.742188 33.40625 -7.859375 C 34.96875 -9.972656 36.148438 -12.351562 36.953125 -15 C 37.765625 -17.644531 38.171875 -20.375 38.171875 -23.1875 C 38.171875 -26 37.742188 -28.734375 36.890625 -31.390625 C 36.035156 -34.054688 34.828125 -36.445312 33.265625 -38.5625 C 31.710938 -40.675781 29.8125 -42.351562 27.5625 -43.59375 C 25.320312 -44.832031 22.8125 -45.453125 20.03125 -45.453125 L 10.015625 -45.453125 Z M 10.015625 -0.921875 "/></g></g></g><g fill="#000000" fill-opacity="1"><g transform="translate(2.427028, 195.304918)"><g><path d="M 1.859375 -46.375 L 21.140625 -46.375 C 24.734375 -46.375 27.890625 -45.753906 30.609375 -44.515625 C 33.328125 -43.285156 35.601562 -41.59375 37.4375 -39.4375 C 39.28125 -37.289062 40.671875 -34.828125 41.609375 -32.046875 C 42.554688 -29.265625 43.03125 -26.3125 43.03125 -23.1875 C 43.03125 -20.0625 42.554688 -17.109375 41.609375 -14.328125 C 40.671875 -11.546875 39.28125 -9.078125 37.4375 -6.921875 C 35.601562 -4.773438 33.328125 -3.082031 30.609375 -1.84375 C 27.890625 -0.613281 24.734375 0 21.140625 0 L 1.859375 0 L 1.859375 -0.5625 C 2.753906 -0.5625 3.441406 -0.773438 3.921875 -1.203125 C 4.398438 -1.640625 4.738281 -2.179688 4.9375 -2.828125 C 5.132812 -3.472656 5.253906 -4.160156 5.296875 -4.890625 C 5.347656 -5.617188 5.375 -6.257812 5.375 -6.8125 L 5.375 -39.5625 C 5.375 -40.113281 5.347656 -40.753906 5.296875 -41.484375 C 5.253906 -42.210938 5.132812 -42.898438 4.9375 -43.546875 C 4.738281 -44.191406 4.398438 -44.726562 3.921875 -45.15625 C 3.441406 -45.59375 2.753906 -45.8125 1.859375 -45.8125 Z M 10.015625 -0.921875 L 20.03125 -0.921875 C 22.875 -0.921875 25.425781 -1.546875 27.6875 -2.796875 C 29.945312 -4.054688 31.851562 -5.742188 33.40625 -7.859375 C 34.96875 -9.972656 36.148438 -12.351562 36.953125 -15 C 37.765625 -17.644531 38.171875 -20.375 38.171875 -23.1875 C 38.171875 -26 37.742188 -28.734375 36.890625 -31.390625 C 36.035156 -34.054688 34.828125 -36.445312 33.265625 -38.5625 C 31.710938 -40.675781 29.8125 -42.351562 27.5625 -43.59375 C 25.320312 -44.832031 22.8125 -45.453125 20.03125 -45.453125 L 10.015625 -45.453125 Z M 10.015625 -0.921875 "/></g></g></g><g fill="#000000" fill-opacity="0.4"><g transform="translate(48.250131, 195.304918)"><g/></g></g><g fill="#000000" fill-opacity="0.4"><g transform="translate(65.637546, 195.304918)"><g/></g></g><g fill="#000000" fill-opacity="1"><g transform="translate(48.250131, 195.304918)"><g/></g></g><g fill="#000000" fill-opacity="1"><g transform="translate(65.637546, 195.304918)"><g/></g></g><g fill="#000000" fill-opacity="0.4"><g transform="translate(83.028412, 195.304918)"><g><path d="M 10.296875 0 L 0 0 L 0 -0.5625 C 0.863281 -0.59375 1.8125 -1.054688 2.84375 -1.953125 C 3.882812 -2.847656 4.625 -4.253906 5.0625 -6.171875 C 5.988281 -10.253906 6.84375 -14.203125 7.625 -18.015625 C 8.414062 -21.835938 9.203125 -25.679688 9.984375 -29.546875 C 10.773438 -33.410156 11.648438 -37.472656 12.609375 -41.734375 L 11.875 -43.453125 C 11.5 -44.316406 11.09375 -44.898438 10.65625 -45.203125 C 10.226562 -45.515625 9.765625 -45.691406 9.265625 -45.734375 C 8.773438 -45.785156 8.253906 -45.8125 7.703125 -45.8125 L 7.703125 -46.375 L 14.5625 -46.375 C 15.207031 -46.375 15.703125 -46.210938 16.046875 -45.890625 C 16.390625 -45.566406 16.617188 -45.203125 16.734375 -44.796875 C 18.566406 -39.566406 20.410156 -34.507812 22.265625 -29.625 C 24.117188 -24.75 26.082031 -19.804688 28.15625 -14.796875 C 30.21875 -19.804688 32.175781 -24.75 34.03125 -29.625 C 35.894531 -34.507812 37.738281 -39.566406 39.5625 -44.796875 C 39.71875 -45.203125 39.957031 -45.566406 40.28125 -45.890625 C 40.601562 -46.210938 41.085938 -46.375 41.734375 -46.375 L 49.109375 -46.375 L 49.109375 -45.8125 C 48.585938 -45.8125 47.992188 -45.765625 47.328125 -45.671875 C 46.660156 -45.585938 46.117188 -45.375 45.703125 -45.03125 C 45.285156 -44.6875 45.140625 -44.128906 45.265625 -43.359375 C 45.910156 -39.742188 46.523438 -36.363281 47.109375 -33.21875 C 47.703125 -30.082031 48.285156 -27.050781 48.859375 -24.125 C 49.429688 -21.207031 50.023438 -18.285156 50.640625 -15.359375 C 51.253906 -12.441406 51.9375 -9.378906 52.6875 -6.171875 C 53.113281 -4.253906 53.84375 -2.847656 54.875 -1.953125 C 55.914062 -1.054688 56.867188 -0.59375 57.734375 -0.5625 L 57.734375 0 L 43.546875 0 L 43.546875 -0.5625 C 44.347656 -0.5625 45.132812 -0.875 45.90625 -1.5 C 46.6875 -2.132812 47.078125 -3.117188 47.078125 -4.453125 C 47.078125 -5.160156 46.953125 -6.445312 46.703125 -8.3125 C 46.453125 -10.1875 46.101562 -12.46875 45.65625 -15.15625 C 45.207031 -17.851562 44.695312 -20.800781 44.125 -24 C 43.550781 -27.195312 42.929688 -30.503906 42.265625 -33.921875 C 41.609375 -37.335938 40.9375 -40.6875 40.25 -43.96875 C 38.363281 -38.738281 36.492188 -33.632812 34.640625 -28.65625 C 32.785156 -23.675781 30.789062 -18.640625 28.65625 -13.546875 C 28.71875 -13.453125 28.769531 -13.347656 28.8125 -13.234375 C 28.863281 -13.128906 28.90625 -13.015625 28.9375 -12.890625 C 29.34375 -11.929688 29.757812 -11.242188 30.1875 -10.828125 C 30.625 -10.410156 31.179688 -10.203125 31.859375 -10.203125 L 32.828125 -10.203125 L 32.828125 -9.546875 C 32.023438 -9.460938 31.335938 -9.238281 30.765625 -8.875 C 30.191406 -8.519531 29.6875 -8.125 29.25 -7.6875 C 28.820312 -7.257812 28.429688 -6.890625 28.078125 -6.578125 C 27.722656 -6.273438 27.359375 -6.125 26.984375 -6.125 C 26.679688 -6.125 26.4375 -6.226562 26.25 -6.4375 C 26.0625 -6.65625 25.890625 -6.9375 25.734375 -7.28125 C 25.398438 -8.175781 24.867188 -9.644531 24.140625 -11.6875 C 23.410156 -13.726562 22.503906 -16.15625 21.421875 -18.96875 L 13.40625 -39.921875 C 12.9375 -37.890625 12.4375 -35.679688 11.90625 -33.296875 C 11.382812 -30.910156 10.875 -28.484375 10.375 -26.015625 C 9.882812 -23.546875 9.421875 -21.132812 8.984375 -18.78125 C 8.554688 -16.425781 8.171875 -14.257812 7.828125 -12.28125 C 7.492188 -10.3125 7.234375 -8.628906 7.046875 -7.234375 C 6.859375 -5.835938 6.765625 -4.863281 6.765625 -4.3125 C 6.765625 -2.976562 7.148438 -2.019531 7.921875 -1.4375 C 8.703125 -0.851562 9.492188 -0.5625 10.296875 -0.5625 Z M 10.296875 0 "/></g></g></g><g fill="#000000" fill-opacity="0.4"><g transform="translate(140.754623, 195.304918)"><g><path d="M 10.296875 0 L 0 0 L 0 -0.5625 C 0.863281 -0.59375 1.8125 -1.054688 2.84375 -1.953125 C 3.882812 -2.847656 4.625 -4.253906 5.0625 -6.171875 C 5.988281 -10.253906 6.84375 -14.203125 7.625 -18.015625 C 8.414062 -21.835938 9.203125 -25.679688 9.984375 -29.546875 C 10.773438 -33.410156 11.648438 -37.472656 12.609375 -41.734375 L 11.875 -43.453125 C 11.5 -44.316406 11.09375 -44.898438 10.65625 -45.203125 C 10.226562 -45.515625 9.765625 -45.691406 9.265625 -45.734375 C 8.773438 -45.785156 8.253906 -45.8125 7.703125 -45.8125 L 7.703125 -46.375 L 14.5625 -46.375 C 15.207031 -46.375 15.703125 -46.210938 16.046875 -45.890625 C 16.390625 -45.566406 16.617188 -45.203125 16.734375 -44.796875 C 18.566406 -39.566406 20.410156 -34.507812 22.265625 -29.625 C 24.117188 -24.75 26.082031 -19.804688 28.15625 -14.796875 C 30.21875 -19.804688 32.175781 -24.75 34.03125 -29.625 C 35.894531 -34.507812 37.738281 -39.566406 39.5625 -44.796875 C 39.71875 -45.203125 39.957031 -45.566406 40.28125 -45.890625 C 40.601562 -46.210938 41.085938 -46.375 41.734375 -46.375 L 49.109375 -46.375 L 49.109375 -45.8125 C 48.585938 -45.8125 47.992188 -45.765625 47.328125 -45.671875 C 46.660156 -45.585938 46.117188 -45.375 45.703125 -45.03125 C 45.285156 -44.6875 45.140625 -44.128906 45.265625 -43.359375 C 45.910156 -39.742188 46.523438 -36.363281 47.109375 -33.21875 C 47.703125 -30.082031 48.285156 -27.050781 48.859375 -24.125 C 49.429688 -21.207031 50.023438 -18.285156 50.640625 -15.359375 C 51.253906 -12.441406 51.9375 -9.378906 52.6875 -6.171875 C 53.113281 -4.253906 53.84375 -2.847656 54.875 -1.953125 C 55.914062 -1.054688 56.867188 -0.59375 57.734375 -0.5625 L 57.734375 0 L 43.546875 0 L 43.546875 -0.5625 C 44.347656 -0.5625 45.132812 -0.875 45.90625 -1.5 C 46.6875 -2.132812 47.078125 -3.117188 47.078125 -4.453125 C 47.078125 -5.160156 46.953125 -6.445312 46.703125 -8.3125 C 46.453125 -10.1875 46.101562 -12.46875 45.65625 -15.15625 C 45.207031 -17.851562 44.695312 -20.800781 44.125 -24 C 43.550781 -27.195312 42.929688 -30.503906 42.265625 -33.921875 C 41.609375 -37.335938 40.9375 -40.6875 40.25 -43.96875 C 38.363281 -38.738281 36.492188 -33.632812 34.640625 -28.65625 C 32.785156 -23.675781 30.789062 -18.640625 28.65625 -13.546875 C 28.71875 -13.453125 28.769531 -13.347656 28.8125 -13.234375 C 28.863281 -13.128906 28.90625 -13.015625 28.9375 -12.890625 C 29.34375 -11.929688 29.757812 -11.242188 30.1875 -10.828125 C 30.625 -10.410156 31.179688 -10.203125 31.859375 -10.203125 L 32.828125 -10.203125 L 32.828125 -9.546875 C 32.023438 -9.460938 31.335938 -9.238281 30.765625 -8.875 C 30.191406 -8.519531 29.6875 -8.125 29.25 -7.6875 C 28.820312 -7.257812 28.429688 -6.890625 28.078125 -6.578125 C 27.722656 -6.273438 27.359375 -6.125 26.984375 -6.125 C 26.679688 -6.125 26.4375 -6.226562 26.25 -6.4375 C 26.0625 -6.65625 25.890625 -6.9375 25.734375 -7.28125 C 25.398438 -8.175781 24.867188 -9.644531 24.140625 -11.6875 C 23.410156 -13.726562 22.503906 -16.15625 21.421875 -18.96875 L 13.40625 -39.921875 C 12.9375 -37.890625 12.4375 -35.679688 11.90625 -33.296875 C 11.382812 -30.910156 10.875 -28.484375 10.375 -26.015625 C 9.882812 -23.546875 9.421875 -21.132812 8.984375 -18.78125 C 8.554688 -16.425781 8.171875 -14.257812 7.828125 -12.28125 C 7.492188 -10.3125 7.234375 -8.628906 7.046875 -7.234375 C 6.859375 -5.835938 6.765625 -4.863281 6.765625 -4.3125 C 6.765625 -2.976562 7.148438 -2.019531 7.921875 -1.4375 C 8.703125 -0.851562 9.492188 -0.5625 10.296875 -0.5625 Z M 10.296875 0 "/></g></g></g><g fill="#000000" fill-opacity="0.4"><g transform="translate(198.480834, 195.304918)"><g><path d="M 1.859375 -45.8125 L 1.859375 -46.375 L 13.546875 -46.375 L 13.546875 -45.8125 C 12.679688 -45.8125 12 -45.59375 11.5 -45.15625 C 11.007812 -44.726562 10.660156 -44.191406 10.453125 -43.546875 C 10.253906 -42.898438 10.128906 -42.210938 10.078125 -41.484375 C 10.035156 -40.753906 10.015625 -40.113281 10.015625 -39.5625 L 10.015625 -6.8125 C 10.015625 -6.257812 10.035156 -5.617188 10.078125 -4.890625 C 10.128906 -4.160156 10.253906 -3.472656 10.453125 -2.828125 C 10.660156 -2.179688 11.007812 -1.640625 11.5 -1.203125 C 12 -0.773438 12.679688 -0.5625 13.546875 -0.5625 L 13.546875 0 L 1.859375 0 L 1.859375 -0.5625 C 2.753906 -0.5625 3.441406 -0.773438 3.921875 -1.203125 C 4.398438 -1.640625 4.738281 -2.179688 4.9375 -2.828125 C 5.132812 -3.472656 5.253906 -4.160156 5.296875 -4.890625 C 5.347656 -5.617188 5.375 -6.257812 5.375 -6.8125 L 5.375 -39.5625 C 5.375 -40.113281 5.347656 -40.753906 5.296875 -41.484375 C 5.253906 -42.210938 5.132812 -42.898438 4.9375 -43.546875 C 4.738281 -44.191406 4.398438 -44.726562 3.921875 -45.15625 C 3.441406 -45.59375 2.753906 -45.8125 1.859375 -45.8125 Z M 1.859375 -45.8125 "/></g></g></g><g fill="#000000" fill-opacity="0.4"><g transform="translate(213.874492, 195.304918)"><g><path d="M 1.859375 -0.5625 C 2.753906 -0.5625 3.441406 -0.773438 3.921875 -1.203125 C 4.398438 -1.640625 4.738281 -2.179688 4.9375 -2.828125 C 5.132812 -3.472656 5.253906 -4.160156 5.296875 -4.890625 C 5.347656 -5.617188 5.375 -6.257812 5.375 -6.8125 L 5.375 -39.5625 C 5.375 -40.113281 5.347656 -40.753906 5.296875 -41.484375 C 5.253906 -42.210938 5.132812 -42.898438 4.9375 -43.546875 C 4.738281 -44.191406 4.398438 -44.726562 3.921875 -45.15625 C 3.441406 -45.59375 2.753906 -45.8125 1.859375 -45.8125 L 1.859375 -46.375 L 38.03125 -46.375 L 38.03125 -39.09375 L 37.46875 -39.09375 C 36.757812 -40.632812 35.800781 -41.832031 34.59375 -42.6875 C 33.382812 -43.539062 32.046875 -44.164062 30.578125 -44.5625 C 29.109375 -44.96875 27.617188 -45.21875 26.109375 -45.3125 C 24.597656 -45.40625 23.175781 -45.453125 21.84375 -45.453125 L 10.015625 -45.453125 L 10.015625 -28.28125 L 32 -28.28125 L 30.1875 -23.1875 L 29.640625 -23.1875 C 29.109375 -24.726562 28.191406 -25.785156 26.890625 -26.359375 C 25.597656 -26.929688 23.890625 -27.238281 21.765625 -27.28125 C 19.648438 -27.332031 17.09375 -27.359375 14.09375 -27.359375 L 10.015625 -27.359375 L 10.015625 -0.921875 L 22.21875 -0.921875 C 24.59375 -0.921875 26.738281 -1.238281 28.65625 -1.875 C 30.570312 -2.507812 32.25 -3.320312 33.6875 -4.3125 C 35.125 -5.300781 36.3125 -6.367188 37.25 -7.515625 C 38.195312 -8.660156 38.90625 -9.742188 39.375 -10.765625 L 39.921875 -10.765625 L 36.125 0 L 1.859375 0 Z M 1.859375 -0.5625 "/></g></g></g><g fill="#000000" fill-opacity="0.4"><g transform="translate(253.795991, 195.304918)"><g><path d="M 0.5625 -39.09375 L 0 -39.09375 L 0 -46.375 L 34.40625 -46.375 L 34.40625 -39.09375 L 33.859375 -39.09375 C 33.859375 -40.570312 33.398438 -41.773438 32.484375 -42.703125 C 31.578125 -43.640625 30.378906 -44.332031 28.890625 -44.78125 C 27.410156 -45.226562 25.785156 -45.453125 24.015625 -45.453125 L 19.53125 -45.453125 L 19.53125 -6.8125 C 19.53125 -6.257812 19.550781 -5.617188 19.59375 -4.890625 C 19.632812 -4.160156 19.753906 -3.472656 19.953125 -2.828125 C 20.160156 -2.179688 20.507812 -1.640625 21 -1.203125 C 21.5 -0.773438 22.179688 -0.5625 23.046875 -0.5625 L 23.046875 0 L 11.359375 0 L 11.359375 -0.5625 C 12.253906 -0.5625 12.941406 -0.773438 13.421875 -1.203125 C 13.898438 -1.640625 14.238281 -2.179688 14.4375 -2.828125 C 14.644531 -3.472656 14.769531 -4.160156 14.8125 -4.890625 C 14.863281 -5.617188 14.890625 -6.257812 14.890625 -6.8125 L 14.890625 -45.453125 L 10.390625 -45.453125 C 8.628906 -45.453125 7.003906 -45.226562 5.515625 -44.78125 C 4.035156 -44.332031 2.835938 -43.640625 1.921875 -42.703125 C 1.015625 -41.773438 0.5625 -40.570312 0.5625 -39.09375 Z M 0.5625 -39.09375 "/></g></g></g><g fill="#000000" fill-opacity="0.4"><g transform="translate(288.199882, 195.304918)"><g><path d="M 0.5625 -39.09375 L 0 -39.09375 L 0 -46.375 L 34.40625 -46.375 L 34.40625 -39.09375 L 33.859375 -39.09375 C 33.859375 -40.570312 33.398438 -41.773438 32.484375 -42.703125 C 31.578125 -43.640625 30.378906 -44.332031 28.890625 -44.78125 C 27.410156 -45.226562 25.785156 -45.453125 24.015625 -45.453125 L 19.53125 -45.453125 L 19.53125 -6.8125 C 19.53125 -6.257812 19.550781 -5.617188 19.59375 -4.890625 C 19.632812 -4.160156 19.753906 -3.472656 19.953125 -2.828125 C 20.160156 -2.179688 20.507812 -1.640625 21 -1.203125 C 21.5 -0.773438 22.179688 -0.5625 23.046875 -0.5625 L 23.046875 0 L 11.359375 0 L 11.359375 -0.5625 C 12.253906 -0.5625 12.941406 -0.773438 13.421875 -1.203125 C 13.898438 -1.640625 14.238281 -2.179688 14.4375 -2.828125 C 14.644531 -3.472656 14.769531 -4.160156 14.8125 -4.890625 C 14.863281 -5.617188 14.890625 -6.257812 14.890625 -6.8125 L 14.890625 -45.453125 L 10.390625 -45.453125 C 8.628906 -45.453125 7.003906 -45.226562 5.515625 -44.78125 C 4.035156 -44.332031 2.835938 -43.640625 1.921875 -42.703125 C 1.015625 -41.773438 0.5625 -40.570312 0.5625 -39.09375 Z M 0.5625 -39.09375 "/></g></g></g><g fill="#000000" fill-opacity="0.4"><g transform="translate(322.603786, 195.304918)"><g><path d="M 1.859375 -0.5625 C 2.753906 -0.5625 3.441406 -0.773438 3.921875 -1.203125 C 4.398438 -1.640625 4.738281 -2.179688 4.9375 -2.828125 C 5.132812 -3.472656 5.253906 -4.160156 5.296875 -4.890625 C 5.347656 -5.617188 5.375 -6.257812 5.375 -6.8125 L 5.375 -39.5625 C 5.375 -40.113281 5.347656 -40.753906 5.296875 -41.484375 C 5.253906 -42.210938 5.132812 -42.898438 4.9375 -43.546875 C 4.738281 -44.191406 4.398438 -44.726562 3.921875 -45.15625 C 3.441406 -45.59375 2.753906 -45.8125 1.859375 -45.8125 L 1.859375 -46.375 L 38.03125 -46.375 L 38.03125 -39.09375 L 37.46875 -39.09375 C 36.757812 -40.632812 35.800781 -41.832031 34.59375 -42.6875 C 33.382812 -43.539062 32.046875 -44.164062 30.578125 -44.5625 C 29.109375 -44.96875 27.617188 -45.21875 26.109375 -45.3125 C 24.597656 -45.40625 23.175781 -45.453125 21.84375 -45.453125 L 10.015625 -45.453125 L 10.015625 -28.28125 L 32 -28.28125 L 30.1875 -23.1875 L 29.640625 -23.1875 C 29.109375 -24.726562 28.191406 -25.785156 26.890625 -26.359375 C 25.597656 -26.929688 23.890625 -27.238281 21.765625 -27.28125 C 19.648438 -27.332031 17.09375 -27.359375 14.09375 -27.359375 L 10.015625 -27.359375 L 10.015625 -0.921875 L 22.21875 -0.921875 C 24.59375 -0.921875 26.738281 -1.238281 28.65625 -1.875 C 30.570312 -2.507812 32.25 -3.320312 33.6875 -4.3125 C 35.125 -5.300781 36.3125 -6.367188 37.25 -7.515625 C 38.195312 -8.660156 38.90625 -9.742188 39.375 -10.765625 L 39.921875 -10.765625 L 36.125 0 L 1.859375 0 Z M 1.859375 -0.5625 "/></g></g></g><g fill="#000000" fill-opacity="1"><g transform="translate(83.028412, 195.304918)"><g><path d="M 10.296875 0 L 0 0 L 0 -0.5625 C 0.863281 -0.59375 1.8125 -1.054688 2.84375 -1.953125 C 3.882812 -2.847656 4.625 -4.253906 5.0625 -6.171875 C 5.988281 -10.253906 6.84375 -14.203125 7.625 -18.015625 C 8.414062 -21.835938 9.203125 -25.679688 9.984375 -29.546875 C 10.773438 -33.410156 11.648438 -37.472656 12.609375 -41.734375 L 11.875 -43.453125 C 11.5 -44.316406 11.09375 -44.898438 10.65625 -45.203125 C 10.226562 -45.515625 9.765625 -45.691406 9.265625 -45.734375 C 8.773438 -45.785156 8.253906 -45.8125 7.703125 -45.8125 L 7.703125 -46.375 L 14.5625 -46.375 C 15.207031 -46.375 15.703125 -46.210938 16.046875 -45.890625 C 16.390625 -45.566406 16.617188 -45.203125 16.734375 -44.796875 C 18.566406 -39.566406 20.410156 -34.507812 22.265625 -29.625 C 24.117188 -24.75 26.082031 -19.804688 28.15625 -14.796875 C 30.21875 -19.804688 32.175781 -24.75 34.03125 -29.625 C 35.894531 -34.507812 37.738281 -39.566406 39.5625 -44.796875 C 39.71875 -45.203125 39.957031 -45.566406 40.28125 -45.890625 C 40.601562 -46.210938 41.085938 -46.375 41.734375 -46.375 L 49.109375 -46.375 L 49.109375 -45.8125 C 48.585938 -45.8125 47.992188 -45.765625 47.328125 -45.671875 C 46.660156 -45.585938 46.117188 -45.375 45.703125 -45.03125 C 45.285156 -44.6875 45.140625 -44.128906 45.265625 -43.359375 C 45.910156 -39.742188 46.523438 -36.363281 47.109375 -33.21875 C 47.703125 -30.082031 48.285156 -27.050781 48.859375 -24.125 C 49.429688 -21.207031 50.023438 -18.285156 50.640625 -15.359375 C 51.253906 -12.441406 51.9375 -9.378906 52.6875 -6.171875 C 53.113281 -4.253906 53.84375 -2.847656 54.875 -1.953125 C 55.914062 -1.054688 56.867188 -0.59375 57.734375 -0.5625 L 57.734375 0 L 43.546875 0 L 43.546875 -0.5625 C 44.347656 -0.5625 45.132812 -0.875 45.90625 -1.5 C 46.6875 -2.132812 47.078125 -3.117188 47.078125 -4.453125 C 47.078125 -5.160156 46.953125 -6.445312 46.703125 -8.3125 C 46.453125 -10.1875 46.101562 -12.46875 45.65625 -15.15625 C 45.207031 -17.851562 44.695312 -20.800781 44.125 -24 C 43.550781 -27.195312 42.929688 -30.503906 42.265625 -33.921875 C 41.609375 -37.335938 40.9375 -40.6875 40.25 -43.96875 C 38.363281 -38.738281 36.492188 -33.632812 34.640625 -28.65625 C 32.785156 -23.675781 30.789062 -18.640625 28.65625 -13.546875 C 28.71875 -13.453125 28.769531 -13.347656 28.8125 -13.234375 C 28.863281 -13.128906 28.90625 -13.015625 28.9375 -12.890625 C 29.34375 -11.929688 29.757812 -11.242188 30.1875 -10.828125 C 30.625 -10.410156 31.179688 -10.203125 31.859375 -10.203125 L 32.828125 -10.203125 L 32.828125 -9.546875 C 32.023438 -9.460938 31.335938 -9.238281 30.765625 -8.875 C 30.191406 -8.519531 29.6875 -8.125 29.25 -7.6875 C 28.820312 -7.257812 28.429688 -6.890625 28.078125 -6.578125 C 27.722656 -6.273438 27.359375 -6.125 26.984375 -6.125 C 26.679688 -6.125 26.4375 -6.226562 26.25 -6.4375 C 26.0625 -6.65625 25.890625 -6.9375 25.734375 -7.28125 C 25.398438 -8.175781 24.867188 -9.644531 24.140625 -11.6875 C 23.410156 -13.726562 22.503906 -16.15625 21.421875 -18.96875 L 13.40625 -39.921875 C 12.9375 -37.890625 12.4375 -35.679688 11.90625 -33.296875 C 11.382812 -30.910156 10.875 -28.484375 10.375 -26.015625 C 9.882812 -23.546875 9.421875 -21.132812 8.984375 -18.78125 C 8.554688 -16.425781 8.171875 -14.257812 7.828125 -12.28125 C 7.492188 -10.3125 7.234375 -8.628906 7.046875 -7.234375 C 6.859375 -5.835938 6.765625 -4.863281 6.765625 -4.3125 C 6.765625 -2.976562 7.148438 -2.019531 7.921875 -1.4375 C 8.703125 -0.851562 9.492188 -0.5625 10.296875 -0.5625 Z M 10.296875 0 "/></g></g></g><g fill="#000000" fill-opacity="1"><g transform="translate(140.754623, 195.304918)"><g><path d="M 10.296875 0 L 0 0 L 0 -0.5625 C 0.863281 -0.59375 1.8125 -1.054688 2.84375 -1.953125 C 3.882812 -2.847656 4.625 -4.253906 5.0625 -6.171875 C 5.988281 -10.253906 6.84375 -14.203125 7.625 -18.015625 C 8.414062 -21.835938 9.203125 -25.679688 9.984375 -29.546875 C 10.773438 -33.410156 11.648438 -37.472656 12.609375 -41.734375 L 11.875 -43.453125 C 11.5 -44.316406 11.09375 -44.898438 10.65625 -45.203125 C 10.226562 -45.515625 9.765625 -45.691406 9.265625 -45.734375 C 8.773438 -45.785156 8.253906 -45.8125 7.703125 -45.8125 L 7.703125 -46.375 L 14.5625 -46.375 C 15.207031 -46.375 15.703125 -46.210938 16.046875 -45.890625 C 16.390625 -45.566406 16.617188 -45.203125 16.734375 -44.796875 C 18.566406 -39.566406 20.410156 -34.507812 22.265625 -29.625 C 24.117188 -24.75 26.082031 -19.804688 28.15625 -14.796875 C 30.21875 -19.804688 32.175781 -24.75 34.03125 -29.625 C 35.894531 -34.507812 37.738281 -39.566406 39.5625 -44.796875 C 39.71875 -45.203125 39.957031 -45.566406 40.28125 -45.890625 C 40.601562 -46.210938 41.085938 -46.375 41.734375 -46.375 L 49.109375 -46.375 L 49.109375 -45.8125 C 48.585938 -45.8125 47.992188 -45.765625 47.328125 -45.671875 C 46.660156 -45.585938 46.117188 -45.375 45.703125 -45.03125 C 45.285156 -44.6875 45.140625 -44.128906 45.265625 -43.359375 C 45.910156 -39.742188 46.523438 -36.363281 47.109375 -33.21875 C 47.703125 -30.082031 48.285156 -27.050781 48.859375 -24.125 C 49.429688 -21.207031 50.023438 -18.285156 50.640625 -15.359375 C 51.253906 -12.441406 51.9375 -9.378906 52.6875 -6.171875 C 53.113281 -4.253906 53.84375 -2.847656 54.875 -1.953125 C 55.914062 -1.054688 56.867188 -0.59375 57.734375 -0.5625 L 57.734375 0 L 43.546875 0 L 43.546875 -0.5625 C 44.347656 -0.5625 45.132812 -0.875 45.90625 -1.5 C 46.6875 -2.132812 47.078125 -3.117188 47.078125 -4.453125 C 47.078125 -5.160156 46.953125 -6.445312 46.703125 -8.3125 C 46.453125 -10.1875 46.101562 -12.46875 45.65625 -15.15625 C 45.207031 -17.851562 44.695312 -20.800781 44.125 -24 C 43.550781 -27.195312 42.929688 -30.503906 42.265625 -33.921875 C 41.609375 -37.335938 40.9375 -40.6875 40.25 -43.96875 C 38.363281 -38.738281 36.492188 -33.632812 34.640625 -28.65625 C 32.785156 -23.675781 30.789062 -18.640625 28.65625 -13.546875 C 28.71875 -13.453125 28.769531 -13.347656 28.8125 -13.234375 C 28.863281 -13.128906 28.90625 -13.015625 28.9375 -12.890625 C 29.34375 -11.929688 29.757812 -11.242188 30.1875 -10.828125 C 30.625 -10.410156 31.179688 -10.203125 31.859375 -10.203125 L 32.828125 -10.203125 L 32.828125 -9.546875 C 32.023438 -9.460938 31.335938 -9.238281 30.765625 -8.875 C 30.191406 -8.519531 29.6875 -8.125 29.25 -7.6875 C 28.820312 -7.257812 28.429688 -6.890625 28.078125 -6.578125 C 27.722656 -6.273438 27.359375 -6.125 26.984375 -6.125 C 26.679688 -6.125 26.4375 -6.226562 26.25 -6.4375 C 26.0625 -6.65625 25.890625 -6.9375 25.734375 -7.28125 C 25.398438 -8.175781 24.867188 -9.644531 24.140625 -11.6875 C 23.410156 -13.726562 22.503906 -16.15625 21.421875 -18.96875 L 13.40625 -39.921875 C 12.9375 -37.890625 12.4375 -35.679688 11.90625 -33.296875 C 11.382812 -30.910156 10.875 -28.484375 10.375 -26.015625 C 9.882812 -23.546875 9.421875 -21.132812 8.984375 -18.78125 C 8.554688 -16.425781 8.171875 -14.257812 7.828125 -12.28125 C 7.492188 -10.3125 7.234375 -8.628906 7.046875 -7.234375 C 6.859375 -5.835938 6.765625 -4.863281 6.765625 -4.3125 C 6.765625 -2.976562 7.148438 -2.019531 7.921875 -1.4375 C 8.703125 -0.851562 9.492188 -0.5625 10.296875 -0.5625 Z M 10.296875 0 "/></g></g></g><g fill="#000000" fill-opacity="1"><g transform="translate(198.480834, 195.304918)"><g><path d="M 1.859375 -45.8125 L 1.859375 -46.375 L 13.546875 -46.375 L 13.546875 -45.8125 C 12.679688 -45.8125 12 -45.59375 11.5 -45.15625 C 11.007812 -44.726562 10.660156 -44.191406 10.453125 -43.546875 C 10.253906 -42.898438 10.128906 -42.210938 10.078125 -41.484375 C 10.035156 -40.753906 10.015625 -40.113281 10.015625 -39.5625 L 10.015625 -6.8125 C 10.015625 -6.257812 10.035156 -5.617188 10.078125 -4.890625 C 10.128906 -4.160156 10.253906 -3.472656 10.453125 -2.828125 C 10.660156 -2.179688 11.007812 -1.640625 11.5 -1.203125 C 12 -0.773438 12.679688 -0.5625 13.546875 -0.5625 L 13.546875 0 L 1.859375 0 L 1.859375 -0.5625 C 2.753906 -0.5625 3.441406 -0.773438 3.921875 -1.203125 C 4.398438 -1.640625 4.738281 -2.179688 4.9375 -2.828125 C 5.132812 -3.472656 5.253906 -4.160156 5.296875 -4.890625 C 5.347656 -5.617188 5.375 -6.257812 5.375 -6.8125 L 5.375 -39.5625 C 5.375 -40.113281 5.347656 -40.753906 5.296875 -41.484375 C 5.253906 -42.210938 5.132812 -42.898438 4.9375 -43.546875 C 4.738281 -44.191406 4.398438 -44.726562 3.921875 -45.15625 C 3.441406 -45.59375 2.753906 -45.8125 1.859375 -45.8125 Z M 1.859375 -45.8125 "/></g></g></g><g fill="#000000" fill-opacity="1"><g transform="translate(213.874492, 195.304918)"><g><path d="M 1.859375 -0.5625 C 2.753906 -0.5625 3.441406 -0.773438 3.921875 -1.203125 C 4.398438 -1.640625 4.738281 -2.179688 4.9375 -2.828125 C 5.132812 -3.472656 5.253906 -4.160156 5.296875 -4.890625 C 5.347656 -5.617188 5.375 -6.257812 5.375 -6.8125 L 5.375 -39.5625 C 5.375 -40.113281 5.347656 -40.753906 5.296875 -41.484375 C 5.253906 -42.210938 5.132812 -42.898438 4.9375 -43.546875 C 4.738281 -44.191406 4.398438 -44.726562 3.921875 -45.15625 C 3.441406 -45.59375 2.753906 -45.8125 1.859375 -45.8125 L 1.859375 -46.375 L 38.03125 -46.375 L 38.03125 -39.09375 L 37.46875 -39.09375 C 36.757812 -40.632812 35.800781 -41.832031 34.59375 -42.6875 C 33.382812 -43.539062 32.046875 -44.164062 30.578125 -44.5625 C 29.109375 -44.96875 27.617188 -45.21875 26.109375 -45.3125 C 24.597656 -45.40625 23.175781 -45.453125 21.84375 -45.453125 L 10.015625 -45.453125 L 10.015625 -28.28125 L 32 -28.28125 L 30.1875 -23.1875 L 29.640625 -23.1875 C 29.109375 -24.726562 28.191406 -25.785156 26.890625 -26.359375 C 25.597656 -26.929688 23.890625 -27.238281 21.765625 -27.28125 C 19.648438 -27.332031 17.09375 -27.359375 14.09375 -27.359375 L 10.015625 -27.359375 L 10.015625 -0.921875 L 22.21875 -0.921875 C 24.59375 -0.921875 26.738281 -1.238281 28.65625 -1.875 C 30.570312 -2.507812 32.25 -3.320312 33.6875 -4.3125 C 35.125 -5.300781 36.3125 -6.367188 37.25 -7.515625 C 38.195312 -8.660156 38.90625 -9.742188 39.375 -10.765625 L 39.921875 -10.765625 L 36.125 0 L 1.859375 0 Z M 1.859375 -0.5625 "/></g></g></g><g fill="#000000" fill-opacity="1"><g transform="translate(253.795991, 195.304918)"><g><path d="M 0.5625 -39.09375 L 0 -39.09375 L 0 -46.375 L 34.40625 -46.375 L 34.40625 -39.09375 L 33.859375 -39.09375 C 33.859375 -40.570312 33.398438 -41.773438 32.484375 -42.703125 C 31.578125 -43.640625 30.378906 -44.332031 28.890625 -44.78125 C 27.410156 -45.226562 25.785156 -45.453125 24.015625 -45.453125 L 19.53125 -45.453125 L 19.53125 -6.8125 C 19.53125 -6.257812 19.550781 -5.617188 19.59375 -4.890625 C 19.632812 -4.160156 19.753906 -3.472656 19.953125 -2.828125 C 20.160156 -2.179688 20.507812 -1.640625 21 -1.203125 C 21.5 -0.773438 22.179688 -0.5625 23.046875 -0.5625 L 23.046875 0 L 11.359375 0 L 11.359375 -0.5625 C 12.253906 -0.5625 12.941406 -0.773438 13.421875 -1.203125 C 13.898438 -1.640625 14.238281 -2.179688 14.4375 -2.828125 C 14.644531 -3.472656 14.769531 -4.160156 14.8125 -4.890625 C 14.863281 -5.617188 14.890625 -6.257812 14.890625 -6.8125 L 14.890625 -45.453125 L 10.390625 -45.453125 C 8.628906 -45.453125 7.003906 -45.226562 5.515625 -44.78125 C 4.035156 -44.332031 2.835938 -43.640625 1.921875 -42.703125 C 1.015625 -41.773438 0.5625 -40.570312 0.5625 -39.09375 Z M 0.5625 -39.09375 "/></g></g></g><g fill="#000000" fill-opacity="1"><g transform="translate(288.199882, 195.304918)"><g><path d="M 0.5625 -39.09375 L 0 -39.09375 L 0 -46.375 L 34.40625 -46.375 L 34.40625 -39.09375 L 33.859375 -39.09375 C 33.859375 -40.570312 33.398438 -41.773438 32.484375 -42.703125 C 31.578125 -43.640625 30.378906 -44.332031 28.890625 -44.78125 C 27.410156 -45.226562 25.785156 -45.453125 24.015625 -45.453125 L 19.53125 -45.453125 L 19.53125 -6.8125 C 19.53125 -6.257812 19.550781 -5.617188 19.59375 -4.890625 C 19.632812 -4.160156 19.753906 -3.472656 19.953125 -2.828125 C 20.160156 -2.179688 20.507812 -1.640625 21 -1.203125 C 21.5 -0.773438 22.179688 -0.5625 23.046875 -0.5625 L 23.046875 0 L 11.359375 0 L 11.359375 -0.5625 C 12.253906 -0.5625 12.941406 -0.773438 13.421875 -1.203125 C 13.898438 -1.640625 14.238281 -2.179688 14.4375 -2.828125 C 14.644531 -3.472656 14.769531 -4.160156 14.8125 -4.890625 C 14.863281 -5.617188 14.890625 -6.257812 14.890625 -6.8125 L 14.890625 -45.453125 L 10.390625 -45.453125 C 8.628906 -45.453125 7.003906 -45.226562 5.515625 -44.78125 C 4.035156 -44.332031 2.835938 -43.640625 1.921875 -42.703125 C 1.015625 -41.773438 0.5625 -40.570312 0.5625 -39.09375 Z M 0.5625 -39.09375 "/></g></g></g><g fill="#000000" fill-opacity="1"><g transform="translate(322.603786, 195.304918)"><g><path d="M 1.859375 -0.5625 C 2.753906 -0.5625 3.441406 -0.773438 3.921875 -1.203125 C 4.398438 -1.640625 4.738281 -2.179688 4.9375 -2.828125 C 5.132812 -3.472656 5.253906 -4.160156 5.296875 -4.890625 C 5.347656 -5.617188 5.375 -6.257812 5.375 -6.8125 L 5.375 -39.5625 C 5.375 -40.113281 5.347656 -40.753906 5.296875 -41.484375 C 5.253906 -42.210938 5.132812 -42.898438 4.9375 -43.546875 C 4.738281 -44.191406 4.398438 -44.726562 3.921875 -45.15625 C 3.441406 -45.59375 2.753906 -45.8125 1.859375 -45.8125 L 1.859375 -46.375 L 38.03125 -46.375 L 38.03125 -39.09375 L 37.46875 -39.09375 C 36.757812 -40.632812 35.800781 -41.832031 34.59375 -42.6875 C 33.382812 -43.539062 32.046875 -44.164062 30.578125 -44.5625 C 29.109375 -44.96875 27.617188 -45.21875 26.109375 -45.3125 C 24.597656 -45.40625 23.175781 -45.453125 21.84375 -45.453125 L 10.015625 -45.453125 L 10.015625 -28.28125 L 32 -28.28125 L 30.1875 -23.1875 L 29.640625 -23.1875 C 29.109375 -24.726562 28.191406 -25.785156 26.890625 -26.359375 C 25.597656 -26.929688 23.890625 -27.238281 21.765625 -27.28125 C 19.648438 -27.332031 17.09375 -27.359375 14.09375 -27.359375 L 10.015625 -27.359375 L 10.015625 -0.921875 L 22.21875 -0.921875 C 24.59375 -0.921875 26.738281 -1.238281 28.65625 -1.875 C 30.570312 -2.507812 32.25 -3.320312 33.6875 -4.3125 C 35.125 -5.300781 36.3125 -6.367188 37.25 -7.515625 C 38.195312 -8.660156 38.90625 -9.742188 39.375 -10.765625 L 39.921875 -10.765625 L 36.125 0 L 1.859375 0 Z M 1.859375 -0.5625 "/></g></g></g><g fill="#000000" fill-opacity="1"><g transform="translate(148.270762, 205.24755)"><g><path d="M 3.15625 0.125 C 2.625 0.125 2.164062 0.0351562 1.78125 -0.140625 C 1.394531 -0.316406 1.097656 -0.566406 0.890625 -0.890625 C 0.679688 -1.210938 0.570312 -1.585938 0.5625 -2.015625 L 1.390625 -2.015625 C 1.398438 -1.597656 1.566406 -1.269531 1.890625 -1.03125 C 2.210938 -0.789062 2.632812 -0.671875 3.15625 -0.671875 C 3.613281 -0.671875 3.976562 -0.757812 4.25 -0.9375 C 4.53125 -1.125 4.671875 -1.378906 4.671875 -1.703125 C 4.671875 -2.003906 4.535156 -2.25 4.265625 -2.4375 C 4.003906 -2.625 3.578125 -2.785156 2.984375 -2.921875 C 2.171875 -3.117188 1.578125 -3.367188 1.203125 -3.671875 C 0.828125 -3.972656 0.640625 -4.378906 0.640625 -4.890625 C 0.640625 -5.453125 0.847656 -5.894531 1.265625 -6.21875 C 1.691406 -6.539062 2.265625 -6.703125 2.984375 -6.703125 C 3.722656 -6.703125 4.304688 -6.515625 4.734375 -6.140625 C 5.171875 -5.773438 5.394531 -5.273438 5.40625 -4.640625 L 4.578125 -4.640625 C 4.578125 -5.035156 4.429688 -5.347656 4.140625 -5.578125 C 3.859375 -5.804688 3.472656 -5.921875 2.984375 -5.921875 C 2.515625 -5.921875 2.144531 -5.828125 1.875 -5.640625 C 1.613281 -5.453125 1.484375 -5.203125 1.484375 -4.890625 C 1.484375 -4.617188 1.609375 -4.390625 1.859375 -4.203125 C 2.109375 -4.023438 2.550781 -3.859375 3.1875 -3.703125 C 4.03125 -3.492188 4.628906 -3.234375 4.984375 -2.921875 C 5.335938 -2.609375 5.515625 -2.210938 5.515625 -1.734375 C 5.515625 -1.160156 5.300781 -0.707031 4.875 -0.375 C 4.445312 -0.0390625 3.875 0.125 3.15625 0.125 Z M 3.15625 0.125 "/></g></g></g><g fill="#000000" fill-opacity="1"><g transform="translate(156.289199, 205.24755)"><g><path d="M 5.28125 0 L 5.28125 -2.96875 L 1.78125 -2.96875 L 1.78125 0 L 0.953125 0 L 0.953125 -6.578125 L 1.78125 -6.578125 L 1.78125 -3.75 L 5.28125 -3.75 L 5.28125 -6.578125 L 6.109375 -6.578125 L 6.109375 0 Z M 5.28125 0 "/></g></g></g><g fill="#000000" fill-opacity="1"><g transform="translate(165.285076, 205.24755)"><g><path d="M 3.953125 0.125 C 3.285156 0.125 2.691406 -0.0195312 2.171875 -0.3125 C 1.660156 -0.601562 1.257812 -1.003906 0.96875 -1.515625 C 0.6875 -2.035156 0.546875 -2.628906 0.546875 -3.296875 C 0.546875 -3.960938 0.6875 -4.550781 0.96875 -5.0625 C 1.257812 -5.570312 1.660156 -5.972656 2.171875 -6.265625 C 2.691406 -6.554688 3.285156 -6.703125 3.953125 -6.703125 C 4.617188 -6.703125 5.207031 -6.554688 5.71875 -6.265625 C 6.226562 -5.972656 6.628906 -5.570312 6.921875 -5.0625 C 7.210938 -4.550781 7.359375 -3.960938 7.359375 -3.296875 C 7.359375 -2.628906 7.210938 -2.035156 6.921875 -1.515625 C 6.628906 -1.003906 6.226562 -0.601562 5.71875 -0.3125 C 5.207031 -0.0195312 4.617188 0.125 3.953125 0.125 Z M 1.390625 -3.296875 C 1.390625 -2.785156 1.5 -2.332031 1.71875 -1.9375 C 1.9375 -1.550781 2.238281 -1.25 2.625 -1.03125 C 3.007812 -0.8125 3.453125 -0.703125 3.953125 -0.703125 C 4.460938 -0.703125 4.90625 -0.8125 5.28125 -1.03125 C 5.664062 -1.25 5.96875 -1.550781 6.1875 -1.9375 C 6.40625 -2.332031 6.515625 -2.785156 6.515625 -3.296875 C 6.515625 -3.804688 6.40625 -4.253906 6.1875 -4.640625 C 5.96875 -5.023438 5.664062 -5.328125 5.28125 -5.546875 C 4.90625 -5.765625 4.460938 -5.875 3.953125 -5.875 C 3.453125 -5.875 3.007812 -5.765625 2.625 -5.546875 C 2.238281 -5.328125 1.9375 -5.023438 1.71875 -4.640625 C 1.5 -4.253906 1.390625 -3.804688 1.390625 -3.296875 Z M 1.390625 -3.296875 "/></g></g></g><g fill="#000000" fill-opacity="1"><g transform="translate(175.117413, 205.24755)"><g><path d="M 0.953125 0 L 0.953125 -6.578125 L 4.953125 -6.578125 L 4.953125 -5.8125 L 1.78125 -5.8125 L 1.78125 -3.734375 L 4.71875 -3.734375 L 4.71875 -2.96875 L 1.78125 -2.96875 L 1.78125 -0.765625 L 5.0625 -0.765625 L 5.0625 0 Z M 0.953125 0 "/></g></g></g><g fill="#000000" fill-opacity="1"><g transform="translate(182.722317, 205.24755)"><g/></g></g><g fill="#000000" fill-opacity="1"><g transform="translate(186.990766, 205.24755)"><g><path d="M 3.15625 0.125 C 2.625 0.125 2.164062 0.0351562 1.78125 -0.140625 C 1.394531 -0.316406 1.097656 -0.566406 0.890625 -0.890625 C 0.679688 -1.210938 0.570312 -1.585938 0.5625 -2.015625 L 1.390625 -2.015625 C 1.398438 -1.597656 1.566406 -1.269531 1.890625 -1.03125 C 2.210938 -0.789062 2.632812 -0.671875 3.15625 -0.671875 C 3.613281 -0.671875 3.976562 -0.757812 4.25 -0.9375 C 4.53125 -1.125 4.671875 -1.378906 4.671875 -1.703125 C 4.671875 -2.003906 4.535156 -2.25 4.265625 -2.4375 C 4.003906 -2.625 3.578125 -2.785156 2.984375 -2.921875 C 2.171875 -3.117188 1.578125 -3.367188 1.203125 -3.671875 C 0.828125 -3.972656 0.640625 -4.378906 0.640625 -4.890625 C 0.640625 -5.453125 0.847656 -5.894531 1.265625 -6.21875 C 1.691406 -6.539062 2.265625 -6.703125 2.984375 -6.703125 C 3.722656 -6.703125 4.304688 -6.515625 4.734375 -6.140625 C 5.171875 -5.773438 5.394531 -5.273438 5.40625 -4.640625 L 4.578125 -4.640625 C 4.578125 -5.035156 4.429688 -5.347656 4.140625 -5.578125 C 3.859375 -5.804688 3.472656 -5.921875 2.984375 -5.921875 C 2.515625 -5.921875 2.144531 -5.828125 1.875 -5.640625 C 1.613281 -5.453125 1.484375 -5.203125 1.484375 -4.890625 C 1.484375 -4.617188 1.609375 -4.390625 1.859375 -4.203125 C 2.109375 -4.023438 2.550781 -3.859375 3.1875 -3.703125 C 4.03125 -3.492188 4.628906 -3.234375 4.984375 -2.921875 C 5.335938 -2.609375 5.515625 -2.210938 5.515625 -1.734375 C 5.515625 -1.160156 5.300781 -0.707031 4.875 -0.375 C 4.445312 -0.0390625 3.875 0.125 3.15625 0.125 Z M 3.15625 0.125 "/></g></g></g><g fill="#000000" fill-opacity="1"><g transform="translate(195.009203, 205.24755)"><g><path d="M 2.546875 0 L 2.546875 -5.796875 L 0.3125 -5.796875 L 0.3125 -6.578125 L 5.59375 -6.578125 L 5.59375 -5.796875 L 3.375 -5.796875 L 3.375 0 Z M 2.546875 0 "/></g></g></g><g fill="#000000" fill-opacity="1"><g transform="translate(202.867866, 205.24755)"><g><path d="M 3.953125 0.125 C 3.285156 0.125 2.691406 -0.0195312 2.171875 -0.3125 C 1.660156 -0.601562 1.257812 -1.003906 0.96875 -1.515625 C 0.6875 -2.035156 0.546875 -2.628906 0.546875 -3.296875 C 0.546875 -3.960938 0.6875 -4.550781 0.96875 -5.0625 C 1.257812 -5.570312 1.660156 -5.972656 2.171875 -6.265625 C 2.691406 -6.554688 3.285156 -6.703125 3.953125 -6.703125 C 4.617188 -6.703125 5.207031 -6.554688 5.71875 -6.265625 C 6.226562 -5.972656 6.628906 -5.570312 6.921875 -5.0625 C 7.210938 -4.550781 7.359375 -3.960938 7.359375 -3.296875 C 7.359375 -2.628906 7.210938 -2.035156 6.921875 -1.515625 C 6.628906 -1.003906 6.226562 -0.601562 5.71875 -0.3125 C 5.207031 -0.0195312 4.617188 0.125 3.953125 0.125 Z M 1.390625 -3.296875 C 1.390625 -2.785156 1.5 -2.332031 1.71875 -1.9375 C 1.9375 -1.550781 2.238281 -1.25 2.625 -1.03125 C 3.007812 -0.8125 3.453125 -0.703125 3.953125 -0.703125 C 4.460938 -0.703125 4.90625 -0.8125 5.28125 -1.03125 C 5.664062 -1.25 5.96875 -1.550781 6.1875 -1.9375 C 6.40625 -2.332031 6.515625 -2.785156 6.515625 -3.296875 C 6.515625 -3.804688 6.40625 -4.253906 6.1875 -4.640625 C 5.96875 -5.023438 5.664062 -5.328125 5.28125 -5.546875 C 4.90625 -5.765625 4.460938 -5.875 3.953125 -5.875 C 3.453125 -5.875 3.007812 -5.765625 2.625 -5.546875 C 2.238281 -5.328125 1.9375 -5.023438 1.71875 -4.640625 C 1.5 -4.253906 1.390625 -3.804688 1.390625 -3.296875 Z M 1.390625 -3.296875 "/></g></g></g><g fill="#000000" fill-opacity="1"><g transform="translate(212.700205, 205.24755)"><g><path d="M 0.953125 0 L 0.953125 -6.578125 L 3.46875 -6.578125 C 3.925781 -6.578125 4.320312 -6.488281 4.65625 -6.3125 C 5 -6.144531 5.265625 -5.90625 5.453125 -5.59375 C 5.640625 -5.28125 5.734375 -4.90625 5.734375 -4.46875 C 5.734375 -3.9375 5.59375 -3.492188 5.3125 -3.140625 C 5.039062 -2.796875 4.664062 -2.566406 4.1875 -2.453125 L 5.84375 0 L 4.84375 0 L 3.234375 -2.359375 L 1.78125 -2.359375 L 1.78125 0 Z M 1.78125 -3.15625 L 3.375 -3.15625 C 3.851562 -3.15625 4.222656 -3.269531 4.484375 -3.5 C 4.753906 -3.726562 4.890625 -4.050781 4.890625 -4.46875 C 4.890625 -4.882812 4.753906 -5.207031 4.484375 -5.4375 C 4.222656 -5.675781 3.851562 -5.796875 3.375 -5.796875 L 1.78125 -5.796875 Z M 1.78125 -3.15625 "/></g></g></g><g fill="#000000" fill-opacity="1"><g transform="translate(221.038187, 205.24755)"><g><path d="M 0.953125 0 L 0.953125 -6.578125 L 4.953125 -6.578125 L 4.953125 -5.8125 L 1.78125 -5.8125 L 1.78125 -3.734375 L 4.71875 -3.734375 L 4.71875 -2.96875 L 1.78125 -2.96875 L 1.78125 -0.765625 L 5.0625 -0.765625 L 5.0625 0 Z M 0.953125 0 "/></g></g></g></svg>